# xmcd
#
# Track frame offsets: 
#        150
#        13797
#        30665
#        46562
#        58277
#        71960
#        84247
#        96971
#        109020
#        127525
#        140734
#        160603
#        178427
#        196198
#        210937
#        223845
#        240099
#        262891
#        277628
#
# Disc length: 3980 seconds
#
# Revision: 0
# Processed by: cddbd v1.5.2PL0 Copyright (c) Steve Scherf et al.
# Submitted via: ExactAudioCopyFreeDBPlugin 1.0
#
DISCID=fb0f8a13
DTITLE=Quavo - Quavo huncho
DYEAR=2018
DGENRE=Trap
TTITLE0=Biggest alley oop
TTITLE1=Pass out
TTITLE2=Huncho dreams
TTITLE3=Flip the switch
TTITLE4=Give it to em
TTITLE5=Shine
TTITLE6=Workin me
TTITLE7=How bout that?
TTITLE8=Champagne Rose
TTITLE9=Keep that s**t
TTITLE10=F**k 12
TTITLE11=Lose it
TTITLE12=Rerun
TTITLE13=Go all the way
TTITLE14=Lamb talk
TTITLE15=Big bro
TTITLE16=Swing
TTITLE17=Bubble gum
TTITLE18=Lost
EXTD=
EXTT0=
EXTT1=
EXTT2=
EXTT3=
EXTT4=
EXTT5=
EXTT6=
EXTT7=
EXTT8=
EXTT9=
EXTT10=
EXTT11=
EXTT12=
EXTT13=
EXTT14=
EXTT15=
EXTT16=
EXTT17=
EXTT18=
PLAYORDER=
